<svg width="24" height="24" viewBox="0 0 24 24" fill="none" xmlns="http://www.w3.org/2000/svg">
<path fill-rule="evenodd" clip-rule="evenodd" d="M19.8064 5.37097C20.4738 5.85258 20.945 6.59118 21.0741 7.4497C21.1194 7.75055 21.1601 8.0519 21.1963 8.35366C21.4765 10.9566 21.4639 13.9584 21.0741 16.5507C20.8584 17.9851 19.6878 19.0848 18.2427 19.2104L16.7325 19.3416C13.5834 19.6154 10.4165 19.6154 7.2675 19.3417L5.75727 19.2104C4.3122 19.0848 3.14153 17.9851 2.92583 16.5507C2.53601 13.9584 2.52352 10.9564 2.80366 8.35351C2.83988 8.0518 2.8806 7.75049 2.92583 7.4497C3.05475 6.59237 3.52483 5.85463 4.19074 5.37297L4.18997 5.36623L4.23723 5.33998C4.40973 5.21991 4.59482 5.11677 4.79005 5.03286L9.20599 2.57955C10.9426 1.61476 13.0543 1.61476 14.7909 2.57955L19.1966 5.02719C19.4012 5.11402 19.5948 5.22191 19.7746 5.34826L19.807 5.36627L19.8064 5.37097ZM18.9655 6.61473L14.0624 3.89079C12.7788 3.17768 11.2181 3.17768 9.93446 3.89079L5.04279 6.60838C4.70931 6.86 4.47472 7.23675 4.40915 7.67275C4.39746 7.75052 4.38608 7.82833 4.37502 7.90617L9.93596 10.9956C11.2196 11.7087 12.7803 11.7087 14.0639 10.9956L19.6249 7.90613C19.6139 7.8283 19.6025 7.75051 19.5908 7.67275C19.5258 7.2404 19.2946 6.86631 18.9655 6.61473ZM19.7055 15.4808C19.9439 13.5018 19.9782 11.5044 19.8085 9.52011L14.7924 12.3068C13.0558 13.2716 10.9441 13.2716 9.20749 12.3068L4.19147 9.52015C4.02175 11.5044 4.05609 13.5018 4.29449 15.4808C4.32854 15.7635 4.36677 16.0458 4.40915 16.3277C4.43315 16.4872 4.47979 16.6389 4.54563 16.7794C4.78873 17.298 5.29361 17.6644 5.88717 17.716L7.3974 17.8473C10.46 18.1135 13.5399 18.1135 16.6026 17.8473L18.1128 17.716C18.5842 17.675 18.9997 17.4354 19.2726 17.0787C19.4363 16.8647 19.5486 16.6085 19.5908 16.3277C19.6332 16.0458 19.6714 15.7635 19.7055 15.4808Z" fill="#787EFF"/>
</svg>
