<svg width="30" height="30" viewBox="0 0 30 30" fill="none" xmlns="http://www.w3.org/2000/svg">
<path fill-rule="evenodd" clip-rule="evenodd" d="M16.9473 6.91779C15.8591 5.87359 14.1409 5.87359 13.0527 6.91779L7.26966 12.467C7.12797 12.6029 7.03266 12.78 6.99724 12.9732C6.30458 16.7505 6.25345 20.6175 6.846 24.4118L6.98665 25.3125H10.7072V17.5483C10.7072 17.0306 11.127 16.6108 11.6447 16.6108H18.3552C18.873 16.6108 19.2927 17.0306 19.2927 17.5483V25.3125H23.0133L23.154 24.4118C23.7465 20.6175 23.6954 16.7505 23.0027 12.9732C22.9673 12.78 22.872 12.6029 22.7303 12.467L16.9473 6.91779ZM11.7545 5.56489C13.5682 3.82456 16.4318 3.82456 18.2454 5.56489L24.0285 11.1141C24.4542 11.5226 24.7406 12.0547 24.847 12.635C25.5776 16.6195 25.6316 20.6987 25.0065 24.7012L24.7806 26.148C24.6871 26.7464 24.1718 27.1875 23.5662 27.1875H18.3552C17.8375 27.1875 17.4177 26.7677 17.4177 26.25V18.4858H12.5822V26.25C12.5822 26.7677 12.1625 27.1875 11.6447 27.1875H6.43381C5.82821 27.1875 5.31285 26.7464 5.21941 26.148L4.99346 24.7012C4.36839 20.6987 4.42233 16.6195 5.15299 12.635C5.25941 12.0547 5.54576 11.5226 5.97147 11.1141L11.7545 5.56489Z" fill="black"/>
</svg>
