<svg width="30" height="30" viewBox="0 0 30 30" fill="none" xmlns="http://www.w3.org/2000/svg">
<path d="M17.743 4.95121C16.515 3.68293 14.4809 3.68293 13.2529 4.9512L7.25481 11.1459C6.91033 11.5016 6.67884 11.9514 6.58952 12.4385C5.86107 16.411 5.8073 20.4778 6.43047 24.4681L6.6511 25.8809C6.72079 26.3271 7.10512 26.6561 7.55675 26.6561H11.7479C12.0931 26.6561 12.3729 26.3762 12.3729 26.0311V17.2811H18.6229V26.0311C18.6229 26.3762 18.9028 26.6561 19.2479 26.6561H23.4391C23.8907 26.6561 24.2751 26.3271 24.3447 25.8809L24.5654 24.4681C25.1885 20.4778 25.1348 16.411 24.4063 12.4385C24.317 11.9514 24.0855 11.5016 23.741 11.1459L17.743 4.95121Z" fill="#787EFF"/>
</svg>
