<svg width="16" height="19" viewBox="0 0 16 19" fill="none" xmlns="http://www.w3.org/2000/svg">
<path fill-rule="evenodd" clip-rule="evenodd" d="M4.04165 8.33329C4.04165 6.14717 5.81385 4.37496 7.99998 4.37496C10.1861 4.37496 11.9583 6.14717 11.9583 8.33329C11.9583 10.5194 10.1861 12.2916 7.99998 12.2916C5.81385 12.2916 4.04165 10.5194 4.04165 8.33329ZM7.99998 5.62496C6.50421 5.62496 5.29165 6.83752 5.29165 8.33329C5.29165 9.82906 6.50421 11.0416 7.99998 11.0416C9.49575 11.0416 10.7083 9.82906 10.7083 8.33329C10.7083 6.83752 9.49575 5.62496 7.99998 5.62496Z" fill="black"/>
<path fill-rule="evenodd" clip-rule="evenodd" d="M0.93695 7.38067C1.23222 3.79849 4.22568 1.04163 7.82001 1.04163H8.17996C11.7743 1.04163 14.7677 3.79849 15.063 7.38067C15.2216 9.30496 14.6272 11.2157 13.405 12.7104L9.41079 17.5953C8.68163 18.487 7.31834 18.487 6.58917 17.5953L2.59495 12.7104C1.37273 11.2157 0.778334 9.30496 0.93695 7.38067ZM7.82001 2.29163C4.87622 2.29163 2.42456 4.54952 2.18272 7.48336C2.05071 9.08489 2.54542 10.6752 3.56263 11.9192L7.55685 16.804C7.78588 17.0841 8.21408 17.0841 8.44311 16.804L12.4373 11.9192C13.4545 10.6752 13.9492 9.08489 13.8172 7.48336C13.5754 4.54952 11.1237 2.29163 8.17996 2.29163H7.82001Z" fill="black"/>
<path fill-rule="evenodd" clip-rule="evenodd" d="M4.04165 8.33329C4.04165 6.14717 5.81385 4.37496 7.99998 4.37496C10.1861 4.37496 11.9583 6.14717 11.9583 8.33329C11.9583 10.5194 10.1861 12.2916 7.99998 12.2916C5.81385 12.2916 4.04165 10.5194 4.04165 8.33329ZM7.99998 5.62496C6.50421 5.62496 5.29165 6.83752 5.29165 8.33329C5.29165 9.82906 6.50421 11.0416 7.99998 11.0416C9.49575 11.0416 10.7083 9.82906 10.7083 8.33329C10.7083 6.83752 9.49575 5.62496 7.99998 5.62496Z" stroke="black"/>
<path fill-rule="evenodd" clip-rule="evenodd" d="M0.93695 7.38067C1.23222 3.79849 4.22568 1.04163 7.82001 1.04163H8.17996C11.7743 1.04163 14.7677 3.79849 15.063 7.38067C15.2216 9.30496 14.6272 11.2157 13.405 12.7104L9.41079 17.5953C8.68163 18.487 7.31834 18.487 6.58917 17.5953L2.59495 12.7104C1.37273 11.2157 0.778334 9.30496 0.93695 7.38067ZM7.82001 2.29163C4.87622 2.29163 2.42456 4.54952 2.18272 7.48336C2.05071 9.08489 2.54542 10.6752 3.56263 11.9192L7.55685 16.804C7.78588 17.0841 8.21408 17.0841 8.44311 16.804L12.4373 11.9192C13.4545 10.6752 13.9492 9.08489 13.8172 7.48336C13.5754 4.54952 11.1237 2.29163 8.17996 2.29163H7.82001Z" stroke="black"/>
</svg>
