<svg width="8" height="10" viewBox="0 0 8 10" fill="none" xmlns="http://www.w3.org/2000/svg">
<path fill-rule="evenodd" clip-rule="evenodd" d="M2.02082 4.16665C2.02082 3.07358 2.90693 2.18748 3.99999 2.18748C5.09305 2.18748 5.97916 3.07358 5.97916 4.16665C5.97916 5.25971 5.09305 6.14581 3.99999 6.14581C2.90693 6.14581 2.02082 5.25971 2.02082 4.16665ZM3.99999 2.81248C3.2521 2.81248 2.64582 3.41876 2.64582 4.16665C2.64582 4.91453 3.2521 5.52081 3.99999 5.52081C4.74788 5.52081 5.35416 4.91453 5.35416 4.16665C5.35416 3.41876 4.74788 2.81248 3.99999 2.81248Z" fill="black"/>
<path fill-rule="evenodd" clip-rule="evenodd" d="M0.468475 3.69033C0.616111 1.89925 2.11284 0.520813 3.91 0.520813H4.08998C5.88714 0.520813 7.38387 1.89925 7.53151 3.69033C7.61081 4.65248 7.31361 5.60785 6.70251 6.35522L4.7054 8.79763C4.34081 9.24351 3.65917 9.24351 3.29458 8.79763L1.29747 6.35522C0.686367 5.60785 0.389167 4.65248 0.468475 3.69033ZM3.91 1.14581C2.43811 1.14581 1.21228 2.27476 1.09136 3.74168C1.02536 4.54245 1.27271 5.33758 1.78132 5.95959L3.77843 8.402C3.89294 8.54205 4.10704 8.54205 4.22155 8.402L6.21866 5.95959C6.72727 5.33758 6.97462 4.54245 6.90862 3.74168C6.7877 2.27476 5.56187 1.14581 4.08998 1.14581H3.91Z" fill="black"/>
</svg>
