<svg width="30" height="30" viewBox="0 0 30 30" fill="none" xmlns="http://www.w3.org/2000/svg">
<path d="M8.03603 3.0163C8.37648 2.6262 8.33624 2.03398 7.94614 1.69352C7.55605 1.35307 6.96382 1.39331 6.62337 1.78341L5.00861 3.63362C4.09265 4.68313 3.57487 6.02127 3.54582 7.41397L3.47497 10.811C3.46417 11.3287 3.87506 11.7571 4.39272 11.7679C4.91037 11.7787 5.33877 11.3678 5.34956 10.8501L5.42041 7.45306C5.44029 6.50017 5.79456 5.5846 6.42127 4.86651L8.03603 3.0163Z" fill="#787EFF"/>
<path fill-rule="evenodd" clip-rule="evenodd" d="M7.79628 9.62602C7.9699 6.85011 10.2719 4.68759 13.0532 4.68759H13.75V3.7501C13.75 3.05974 14.3097 2.5001 15 2.5001C15.6904 2.5001 16.25 3.05974 16.25 3.7501V4.68759H16.9468C19.7281 4.68759 22.0301 6.85011 22.2037 9.62602L22.48 14.0428C22.5853 15.7268 23.1507 17.3497 24.1145 18.7346C24.9853 19.9859 24.2101 21.7141 22.6964 21.8958L18.4375 22.4068V23.7501C18.4375 25.6486 16.8985 27.1876 15 27.1876C13.1015 27.1876 11.5625 25.6486 11.5625 23.7501V22.4068L7.3036 21.8958C5.78994 21.7141 5.01466 19.9859 5.88551 18.7346C6.84934 17.3497 7.4147 15.7268 7.52003 14.0428L7.79628 9.62602ZM13.4375 23.7501C13.4375 24.613 14.1371 25.3126 15 25.3126C15.863 25.3126 16.5625 24.613 16.5625 23.7501V22.8126H13.4375V23.7501Z" fill="#787EFF"/>
<path d="M22.0539 1.69353C21.6638 2.03398 21.6235 2.62621 21.964 3.0163L23.5788 4.86651C24.2055 5.5846 24.5597 6.50017 24.5796 7.45306L24.6505 10.8501C24.6613 11.3678 25.0896 11.7787 25.6073 11.7679C26.125 11.7571 26.5358 11.3287 26.525 10.811L26.4542 7.41397C26.4252 6.02127 25.9074 4.68313 24.9914 3.63362L23.3767 1.78341C23.0362 1.39332 22.444 1.35307 22.0539 1.69353Z" fill="#787EFF"/>
</svg>
