<svg width="30" height="30" viewBox="0 0 30 30" fill="none" xmlns="http://www.w3.org/2000/svg">
<path d="M8.94439 2.83566C9.3321 2.4376 9.28627 1.8333 8.84203 1.4859C8.39778 1.1385 7.72335 1.17957 7.33564 1.57762L5.49675 3.46557C4.45366 4.53649 3.864 5.90193 3.83092 7.32303L3.75024 10.7894C3.73794 11.3176 4.20587 11.7547 4.79537 11.7658C5.38488 11.7768 5.87274 11.3575 5.88503 10.8293L5.96571 7.36292C5.98835 6.39059 6.3918 5.45634 7.10549 4.72361L8.94439 2.83566Z" fill="black"/>
<path fill-rule="evenodd" clip-rule="evenodd" d="M8.67136 9.5802C8.86908 6.74767 11.4906 4.54104 14.658 4.54104H15.4515V3.58442C15.4515 2.87998 16.0888 2.30892 16.875 2.30892C17.6612 2.30892 18.2985 2.87998 18.2985 3.58442V4.54104H19.092C22.2594 4.54104 24.8809 6.74767 25.0786 9.5802L25.3932 14.0871C25.5132 15.8055 26.157 17.4614 27.2546 18.8745C28.2463 20.1514 27.3635 21.9149 25.6397 22.1002L20.7896 22.6217V23.9924C20.7896 25.9296 19.037 27.5 16.875 27.5C14.713 27.5 12.9604 25.9296 12.9604 23.9924V22.6217L8.1103 22.1002C6.38653 21.9149 5.50364 20.1514 6.49537 18.8745C7.59298 17.4614 8.23682 15.8055 8.35676 14.0871L8.67136 9.5802ZM14.658 6.45429C12.6181 6.45429 10.9298 7.87541 10.8025 9.69964L10.4879 14.2066C10.3435 16.2743 9.56877 18.2669 8.24798 19.9674C8.1763 20.0597 8.24011 20.1872 8.3647 20.2006L13.6853 20.7727C15.8042 21.0005 17.9458 21.0005 20.0647 20.7727L25.3853 20.2006C25.5099 20.1872 25.5737 20.0597 25.502 19.9674C24.1812 18.2669 23.4065 16.2743 23.2621 14.2066L22.9475 9.69964C22.8202 7.87541 21.1319 6.45429 19.092 6.45429H14.658ZM16.875 25.5868C15.8923 25.5868 15.0956 24.8729 15.0956 23.9924V23.0358H18.6544V23.9924C18.6544 24.8729 17.8577 25.5868 16.875 25.5868Z" fill="black"/>
<path d="M24.908 1.4859C24.4637 1.8333 24.4179 2.4376 24.8056 2.83566L26.6445 4.72361C27.3582 5.45634 27.7617 6.39059 27.7843 7.36292L27.865 10.8293C27.8773 11.3575 28.3651 11.7768 28.9546 11.7658C29.5441 11.7547 30.0121 11.3176 29.9998 10.7894L29.9191 7.32303C29.886 5.90193 29.2963 4.53649 28.2533 3.46557L26.4144 1.57762C26.0266 1.17957 25.3522 1.1385 24.908 1.4859Z" fill="black"/>
</svg>
