<svg width="230" height="27" viewBox="0 0 230 27" fill="none" xmlns="http://www.w3.org/2000/svg">
<path d="M7.77804 7.95C9.3487 7.95 10.7547 8.292 11.996 8.976C13.2627 9.63467 14.2507 10.648 14.96 12.016C15.6947 13.384 16.062 15.1193 16.062 17.222C16.062 19.35 15.682 21.098 14.922 22.466C14.1874 23.834 13.1614 24.8473 11.844 25.506C10.5267 26.1647 8.99404 26.494 7.24604 26.494C6.0047 26.494 4.87737 26.342 3.86404 26.038C2.87604 25.734 2.06537 25.4047 1.43204 25.05C0.900037 24.6953 0.532703 24.366 0.330037 24.062C0.12737 23.758 0.0260369 23.34 0.0260369 22.808V10.154H3.06604V22.808C3.44604 23.0867 4.00337 23.3527 4.73804 23.606C5.4727 23.8593 6.3087 23.986 7.24604 23.986C8.9687 23.986 10.3494 23.4413 11.388 22.352C12.452 21.2627 12.984 19.5527 12.984 17.222C12.984 14.866 12.452 13.156 11.388 12.092C10.324 11.0027 8.9687 10.458 7.32204 10.458C6.3087 10.458 5.40937 10.6607 4.62404 11.066C3.8387 11.446 3.1927 11.8893 2.68604 12.396L2.11604 9.926C2.67337 9.49533 3.4207 9.06467 4.35804 8.634C5.29537 8.178 6.43537 7.95 7.77804 7.95ZM3.06604 10.762H0.0260369V1.376C0.152703 1.32533 0.342703 1.27467 0.596037 1.224C0.874704 1.148 1.16604 1.11 1.47004 1.11C2.00204 1.11 2.3947 1.224 2.64804 1.452C2.9267 1.65467 3.06604 1.99667 3.06604 2.478V10.762ZM20.3495 15.968L23.3895 16.424V25.924C23.2628 25.9747 23.0728 26.0253 22.8195 26.076C22.5662 26.152 22.2875 26.19 21.9835 26.19C21.4515 26.19 21.0462 26.0887 20.7675 25.886C20.4888 25.658 20.3495 25.3033 20.3495 24.822V15.968ZM23.3895 17.868L20.3495 17.45V1.376C20.4762 1.32533 20.6662 1.27467 20.9195 1.224C21.1982 1.148 21.4768 1.11 21.7555 1.11C22.3128 1.11 22.7182 1.224 22.9715 1.452C23.2502 1.65467 23.3895 1.99667 23.3895 2.478V17.868ZM44.9391 17.222C44.9391 19.0967 44.5844 20.7307 43.8751 22.124C43.1657 23.5173 42.1651 24.594 40.8731 25.354C39.5811 26.114 38.0611 26.494 36.3131 26.494C34.5651 26.494 33.0324 26.114 31.7151 25.354C30.4231 24.594 29.4224 23.5173 28.7131 22.124C28.0037 20.7307 27.6491 19.0967 27.6491 17.222C27.6491 15.322 28.0037 13.688 28.7131 12.32C29.4477 10.9267 30.4611 9.85 31.7531 9.09C33.0704 8.33 34.5904 7.95 36.3131 7.95C38.0357 7.95 39.5431 8.33 40.8351 9.09C42.1271 9.85 43.1277 10.9267 43.8371 12.32C44.5717 13.688 44.9391 15.322 44.9391 17.222ZM36.3131 10.458C34.6157 10.458 33.2604 11.066 32.2471 12.282C31.2591 13.4727 30.7651 15.1193 30.7651 17.222C30.7651 19.35 31.2464 21.0093 32.2091 22.2C33.1971 23.3907 34.5651 23.986 36.3131 23.986C38.0357 23.986 39.3784 23.3907 40.3411 22.2C41.3291 20.984 41.8231 19.3247 41.8231 17.222C41.8231 15.1193 41.3291 13.4727 40.3411 12.282C39.3784 11.066 38.0357 10.458 36.3131 10.458ZM65.183 17.222C65.183 19.0967 64.8283 20.7307 64.119 22.124C63.4096 23.5173 62.409 24.594 61.117 25.354C59.825 26.114 58.305 26.494 56.557 26.494C54.809 26.494 53.2763 26.114 51.959 25.354C50.667 24.594 49.6663 23.5173 48.957 22.124C48.2476 20.7307 47.893 19.0967 47.893 17.222C47.893 15.322 48.2476 13.688 48.957 12.32C49.6916 10.9267 50.705 9.85 51.997 9.09C53.3143 8.33 54.8343 7.95 56.557 7.95C58.2796 7.95 59.787 8.33 61.079 9.09C62.371 9.85 63.3716 10.9267 64.081 12.32C64.8156 13.688 65.183 15.322 65.183 17.222ZM56.557 10.458C54.8596 10.458 53.5043 11.066 52.491 12.282C51.503 13.4727 51.009 15.1193 51.009 17.222C51.009 19.35 51.4903 21.0093 52.453 22.2C53.441 23.3907 54.809 23.986 56.557 23.986C58.2796 23.986 59.6223 23.3907 60.585 22.2C61.573 20.984 62.067 19.3247 62.067 17.222C62.067 15.1193 61.573 13.4727 60.585 12.282C59.6223 11.066 58.2796 10.458 56.557 10.458ZM81.0949 22.998V10.23L84.1349 10.192V23.112C84.1349 23.5933 84.0209 23.986 83.7929 24.29C83.5902 24.5687 83.2609 24.8473 82.8049 25.126C82.2982 25.4553 81.5762 25.7593 80.6389 26.038C79.7015 26.342 78.6249 26.494 77.4089 26.494C75.5849 26.494 73.9762 26.1773 72.5829 25.544C71.1895 24.9107 70.1002 23.9227 69.3149 22.58C68.5295 21.212 68.1369 19.4513 68.1369 17.298C68.1369 15.094 68.5169 13.308 69.2769 11.94C70.0622 10.572 71.1135 9.57133 72.4309 8.938C73.7482 8.27933 75.1922 7.95 76.7629 7.95C77.7509 7.95 78.6882 8.08933 79.5749 8.368C80.4615 8.64667 81.1582 8.98867 81.6649 9.394V12.206C81.1835 11.7247 80.5502 11.3193 79.7649 10.99C79.0049 10.6353 78.1055 10.458 77.0669 10.458C76.0282 10.458 75.0655 10.686 74.1789 11.142C73.2922 11.5727 72.5829 12.2947 72.0509 13.308C71.5189 14.3213 71.2529 15.6767 71.2529 17.374C71.2529 19.6793 71.8102 21.364 72.9249 22.428C74.0395 23.4667 75.5215 23.986 77.3709 23.986C78.2575 23.986 78.9795 23.8973 79.5369 23.72C80.1195 23.5173 80.6389 23.2767 81.0949 22.998ZM84.1349 10.952L81.0949 10.99V1.376C81.2215 1.32533 81.4115 1.27467 81.6649 1.224C81.9435 1.148 82.2222 1.11 82.5009 1.11C83.0582 1.11 83.4635 1.224 83.7169 1.452C83.9955 1.65467 84.1349 1.99667 84.1349 2.478V10.952ZM105.866 14.182C105.866 17.3487 105.106 19.7553 103.586 21.402C102.066 23.0233 99.8241 23.834 96.8601 23.834C96.1255 23.834 95.4035 23.8087 94.6941 23.758C94.0101 23.7073 93.3641 23.606 92.7561 23.454V5.366C93.2628 5.26466 93.8201 5.18867 94.4281 5.138C95.0361 5.08733 95.7328 5.062 96.5181 5.062C98.2408 5.062 99.7988 5.37867 101.192 6.012C102.611 6.62 103.738 7.59533 104.574 8.938C105.435 10.2553 105.866 12.0033 105.866 14.182ZM109.02 14.182C109.02 11.5727 108.488 9.40667 107.424 7.684C106.385 5.96133 104.929 4.66933 103.054 3.808C101.205 2.92133 99.0388 2.478 96.5561 2.478C95.5681 2.478 94.5801 2.516 93.5921 2.592C92.6041 2.668 91.7175 2.83267 90.9321 3.086C90.5268 3.21266 90.2101 3.39 89.9821 3.618C89.7795 3.82067 89.6781 4.12467 89.6781 4.53V24.062C89.6781 24.898 90.2101 25.4807 91.2741 25.81C92.1861 26.0887 93.1488 26.2533 94.1621 26.304C95.2008 26.38 96.1128 26.418 96.8981 26.418C99.3555 26.418 101.483 25.9747 103.282 25.088C105.106 24.2013 106.512 22.8587 107.5 21.06C108.513 19.236 109.02 16.9433 109.02 14.182ZM129.551 17.222C129.551 19.0967 129.197 20.7307 128.487 22.124C127.778 23.5173 126.777 24.594 125.485 25.354C124.193 26.114 122.673 26.494 120.925 26.494C119.177 26.494 117.645 26.114 116.327 25.354C115.035 24.594 114.035 23.5173 113.325 22.124C112.616 20.7307 112.261 19.0967 112.261 17.222C112.261 15.322 112.616 13.688 113.325 12.32C114.06 10.9267 115.073 9.85 116.365 9.09C117.683 8.33 119.203 7.95 120.925 7.95C122.648 7.95 124.155 8.33 125.447 9.09C126.739 9.85 127.74 10.9267 128.449 12.32C129.184 13.688 129.551 15.322 129.551 17.222ZM120.925 10.458C119.228 10.458 117.873 11.066 116.859 12.282C115.871 13.4727 115.377 15.1193 115.377 17.222C115.377 19.35 115.859 21.0093 116.821 22.2C117.809 23.3907 119.177 23.986 120.925 23.986C122.648 23.986 123.991 23.3907 124.953 22.2C125.941 20.984 126.435 19.3247 126.435 17.222C126.435 15.1193 125.941 13.4727 124.953 12.282C123.991 11.066 122.648 10.458 120.925 10.458ZM148.693 14.41V18.286H145.653V14.562C145.653 13.1433 145.248 12.1047 144.437 11.446C143.652 10.7873 142.588 10.458 141.245 10.458C140.232 10.458 139.333 10.5847 138.547 10.838C137.762 11.0913 137.091 11.3827 136.533 11.712V18.286H133.493V11.864C133.493 11.332 133.595 10.9013 133.797 10.572C134.025 10.2173 134.405 9.87533 134.937 9.546C135.596 9.166 136.47 8.81133 137.559 8.482C138.649 8.12733 139.877 7.95 141.245 7.95C143.551 7.95 145.362 8.482 146.679 9.546C148.022 10.5847 148.693 12.206 148.693 14.41ZM133.493 16.196H136.533V25.924C136.407 25.9747 136.217 26.0253 135.963 26.076C135.71 26.152 135.431 26.19 135.127 26.19C134.595 26.19 134.19 26.0887 133.911 25.886C133.633 25.658 133.493 25.3033 133.493 24.822V16.196ZM145.653 16.196H148.693V25.924C148.567 25.9747 148.364 26.0253 148.085 26.076C147.832 26.152 147.566 26.19 147.287 26.19C146.73 26.19 146.312 26.0887 146.033 25.886C145.78 25.658 145.653 25.3033 145.653 24.822V16.196ZM159.896 26.532C157.515 26.532 155.665 26.0633 154.348 25.126C153.056 24.1887 152.41 22.8333 152.41 21.06C152.41 19.4133 152.955 18.1593 154.044 17.298C155.159 16.4113 156.691 15.8793 158.642 15.702L164.038 15.17V14.106C164.038 12.8393 163.658 11.9147 162.898 11.332C162.138 10.7493 161.112 10.458 159.82 10.458C158.781 10.458 157.781 10.61 156.818 10.914C155.881 11.218 155.045 11.56 154.31 11.94C154.107 11.7627 153.917 11.56 153.74 11.332C153.588 11.0787 153.512 10.8253 153.512 10.572C153.512 9.91333 153.879 9.40667 154.614 9.052C155.298 8.69733 156.083 8.43133 156.97 8.254C157.882 8.05133 158.845 7.95 159.858 7.95C162.062 7.95 163.81 8.444 165.102 9.432C166.394 10.42 167.04 11.978 167.04 14.106V23.112C167.04 23.6693 166.926 24.1 166.698 24.404C166.495 24.6827 166.179 24.9487 165.748 25.202C165.14 25.5313 164.329 25.8353 163.316 26.114C162.303 26.3927 161.163 26.532 159.896 26.532ZM159.896 24.024C160.96 24.024 161.834 23.9227 162.518 23.72C163.227 23.492 163.734 23.2767 164.038 23.074V17.564L159.326 18.058C158.009 18.1593 157.033 18.4507 156.4 18.932C155.767 19.4133 155.45 20.11 155.45 21.022C155.45 21.9593 155.817 22.694 156.552 23.226C157.312 23.758 158.427 24.024 159.896 24.024ZM171.867 15.968H174.907V21.212C174.907 22.2253 175.198 22.9473 175.781 23.378C176.363 23.7833 177.161 23.986 178.175 23.986C178.605 23.986 179.087 23.91 179.619 23.758C180.151 23.606 180.594 23.4287 180.949 23.226C181.101 23.378 181.24 23.568 181.367 23.796C181.493 24.024 181.557 24.29 181.557 24.594C181.557 25.1513 181.227 25.6073 180.569 25.962C179.91 26.3167 178.998 26.494 177.833 26.494C176.059 26.494 174.615 26.1013 173.501 25.316C172.411 24.5307 171.867 23.226 171.867 21.402V15.968ZM173.425 11.332V8.824H181.139C181.215 8.92533 181.291 9.09 181.367 9.318C181.443 9.546 181.481 9.78667 181.481 10.04C181.481 10.4453 181.379 10.762 181.177 10.99C180.974 11.218 180.695 11.332 180.341 11.332H173.425ZM174.907 17.108H171.867V3.352C171.993 3.30133 172.183 3.25067 172.437 3.2C172.715 3.124 173.007 3.086 173.311 3.086C173.843 3.086 174.235 3.2 174.489 3.428C174.767 3.63067 174.907 3.97267 174.907 4.454V17.108ZM184.941 2.896C184.941 2.364 185.131 1.92067 185.511 1.566C185.891 1.186 186.36 0.995998 186.917 0.995998C187.5 0.995998 187.969 1.186 188.323 1.566C188.678 1.92067 188.855 2.364 188.855 2.896C188.855 3.428 188.678 3.884 188.323 4.264C187.969 4.61867 187.5 4.796 186.917 4.796C186.36 4.796 185.891 4.61867 185.511 4.264C185.131 3.884 184.941 3.428 184.941 2.896ZM185.397 15.968H188.437V25.924C188.311 25.9747 188.121 26.0253 187.867 26.076C187.614 26.152 187.335 26.19 187.031 26.19C186.499 26.19 186.094 26.0887 185.815 25.886C185.537 25.658 185.397 25.3033 185.397 24.822V15.968ZM188.437 17.45H185.397V8.52C185.524 8.46933 185.714 8.41867 185.967 8.368C186.246 8.292 186.537 8.254 186.841 8.254C187.373 8.254 187.766 8.368 188.019 8.596C188.298 8.79867 188.437 9.15333 188.437 9.66V17.45ZM209.915 17.222C209.915 19.0967 209.561 20.7307 208.851 22.124C208.142 23.5173 207.141 24.594 205.849 25.354C204.557 26.114 203.037 26.494 201.289 26.494C199.541 26.494 198.009 26.114 196.691 25.354C195.399 24.594 194.399 23.5173 193.689 22.124C192.98 20.7307 192.625 19.0967 192.625 17.222C192.625 15.322 192.98 13.688 193.689 12.32C194.424 10.9267 195.437 9.85 196.729 9.09C198.047 8.33 199.567 7.95 201.289 7.95C203.012 7.95 204.519 8.33 205.811 9.09C207.103 9.85 208.104 10.9267 208.813 12.32C209.548 13.688 209.915 15.322 209.915 17.222ZM201.289 10.458C199.592 10.458 198.237 11.066 197.223 12.282C196.235 13.4727 195.741 15.1193 195.741 17.222C195.741 19.35 196.223 21.0093 197.185 22.2C198.173 23.3907 199.541 23.986 201.289 23.986C203.012 23.986 204.355 23.3907 205.317 22.2C206.305 20.984 206.799 19.3247 206.799 17.222C206.799 15.1193 206.305 13.4727 205.317 12.282C204.355 11.066 203.012 10.458 201.289 10.458ZM229.057 14.41V18.286H226.017V14.562C226.017 13.1433 225.612 12.1047 224.801 11.446C224.016 10.7873 222.952 10.458 221.609 10.458C220.596 10.458 219.697 10.5847 218.911 10.838C218.126 11.0913 217.455 11.3827 216.897 11.712V18.286H213.857V11.864C213.857 11.332 213.959 10.9013 214.161 10.572C214.389 10.2173 214.769 9.87533 215.301 9.546C215.96 9.166 216.834 8.81133 217.923 8.482C219.013 8.12733 220.241 7.95 221.609 7.95C223.915 7.95 225.726 8.482 227.043 9.546C228.386 10.5847 229.057 12.206 229.057 14.41ZM213.857 16.196H216.897V25.924C216.771 25.9747 216.581 26.0253 216.327 26.076C216.074 26.152 215.795 26.19 215.491 26.19C214.959 26.19 214.554 26.0887 214.275 25.886C213.997 25.658 213.857 25.3033 213.857 24.822V16.196ZM226.017 16.196H229.057V25.924C228.931 25.9747 228.728 26.0253 228.449 26.076C228.196 26.152 227.93 26.19 227.651 26.19C227.094 26.19 226.676 26.0887 226.397 25.886C226.144 25.658 226.017 25.3033 226.017 24.822V16.196Z" fill="white"/>
</svg>
