<svg width="329" height="28" viewBox="0 0 329 28" fill="none" xmlns="http://www.w3.org/2000/svg">
<path d="M6.141 0.359999H8.99C9.45867 0.359999 9.79167 0.470999 9.989 0.692999C10.211 0.890333 10.322 1.22333 10.322 1.692V3.172C10.322 3.64067 10.211 3.986 9.989 4.208C9.79167 4.40533 9.45867 4.504 8.99 4.504H6.437C6.11633 4.504 5.86967 4.60267 5.697 4.8C5.52433 4.97267 5.438 5.21933 5.438 5.54V6.095H9.471C9.93967 6.095 10.2727 6.206 10.47 6.428C10.692 6.62533 10.803 6.95833 10.803 7.427V12.903C10.803 13.3717 10.692 13.717 10.47 13.939C10.2727 14.1363 9.93967 14.235 9.471 14.235H1.997C1.52833 14.235 1.183 14.1363 0.961 13.939C0.763667 13.717 0.665 13.3717 0.665 12.903V5.947C0.665 4.07233 1.15833 2.67867 2.145 1.766C3.15633 0.828665 4.48833 0.359999 6.141 0.359999ZM17.981 0.359999H20.83C21.2987 0.359999 21.6317 0.470999 21.829 0.692999C22.051 0.890333 22.162 1.22333 22.162 1.692V3.172C22.162 3.64067 22.051 3.986 21.829 4.208C21.6317 4.40533 21.2987 4.504 20.83 4.504H18.277C17.9563 4.504 17.7097 4.60267 17.537 4.8C17.3643 4.97267 17.278 5.21933 17.278 5.54V6.095H21.311C21.7797 6.095 22.1127 6.206 22.31 6.428C22.532 6.62533 22.643 6.95833 22.643 7.427V12.903C22.643 13.3717 22.532 13.717 22.31 13.939C22.1127 14.1363 21.7797 14.235 21.311 14.235H13.837C13.3683 14.235 13.023 14.1363 12.801 13.939C12.6037 13.717 12.505 13.3717 12.505 12.903V5.947C12.505 4.07233 12.9983 2.67867 13.985 1.766C14.9963 0.828665 16.3283 0.359999 17.981 0.359999ZM39.204 27H27.512C27.0433 27 26.698 26.9013 26.476 26.704C26.2786 26.482 26.18 26.1367 26.18 25.668V21.339C26.18 20.8703 26.2786 20.5373 26.476 20.34C26.698 20.118 27.0433 20.007 27.512 20.007H37.465C37.7856 20.007 38.02 19.9083 38.168 19.711C38.3406 19.489 38.427 19.23 38.427 18.934C38.427 18.5147 38.3406 18.2063 38.168 18.009C38.02 17.8117 37.7856 17.7007 37.465 17.676L31.915 16.899C30.1883 16.6523 28.7946 16.085 27.734 15.197C26.698 14.309 26.18 12.829 26.18 10.757V6.872C26.18 4.77533 26.8583 3.172 28.215 2.062C29.5716 0.927332 31.4463 0.359999 33.839 0.359999H44.199C44.6676 0.359999 45.0006 0.470999 45.198 0.692999C45.42 0.890333 45.531 1.22333 45.531 1.692V6.095C45.531 6.56367 45.42 6.909 45.198 7.131C45.0006 7.32833 44.6676 7.427 44.199 7.427H35.578C35.2573 7.427 35.0106 7.538 34.838 7.76C34.6653 7.95733 34.579 8.21633 34.579 8.537C34.579 8.85767 34.6653 9.129 34.838 9.351C35.0106 9.573 35.2573 9.69633 35.578 9.721L41.091 10.461C42.8176 10.7077 44.2113 11.275 45.272 12.163C46.3326 13.051 46.863 14.531 46.863 16.603V20.488C46.863 22.5847 46.1723 24.2003 44.791 25.335C43.4343 26.445 41.572 27 39.204 27ZM73.5914 20.007C73.5914 21.1417 73.4188 22.1777 73.0734 23.115C72.7528 24.0277 72.1608 24.817 71.2974 25.483C70.4588 26.1243 69.2994 26.63 67.8194 27C66.3394 27.37 64.4524 27.555 62.1584 27.555C59.8644 27.555 57.9774 27.37 56.4974 27C55.0174 26.63 53.8458 26.1243 52.9824 25.483C52.1438 24.817 51.5518 24.0277 51.2064 23.115C50.8858 22.1777 50.7254 21.1417 50.7254 20.007V1.692C50.7254 1.22333 50.8241 0.890333 51.0214 0.692999C51.2434 0.470999 51.5888 0.359999 52.0574 0.359999H57.8664C58.3351 0.359999 58.6681 0.470999 58.8654 0.692999C59.0874 0.890333 59.1984 1.22333 59.1984 1.692V18.564C59.1984 19.0573 59.3834 19.4767 59.7534 19.822C60.1234 20.1427 60.9498 20.303 62.2324 20.303C63.5398 20.303 64.3784 20.1427 64.7484 19.822C65.1184 19.4767 65.3034 19.0573 65.3034 18.564V1.692C65.3034 1.22333 65.4021 0.890333 65.5994 0.692999C65.8214 0.470999 66.1668 0.359999 66.6354 0.359999H72.2594C72.7281 0.359999 73.0611 0.470999 73.2584 0.692999C73.4804 0.890333 73.5914 1.22333 73.5914 1.692V20.007ZM85.5829 27H79.8479C79.3792 27 79.0339 26.9013 78.8119 26.704C78.6146 26.482 78.5159 26.1367 78.5159 25.668V1.692C78.5159 1.22333 78.6146 0.890333 78.8119 0.692999C79.0339 0.470999 79.3792 0.359999 79.8479 0.359999H91.1699C94.5246 0.359999 96.8186 1.026 98.0519 2.358C99.2852 3.69 99.9019 5.429 99.9019 7.575V12.311C99.9019 14.457 99.2852 16.196 98.0519 17.528C96.8186 18.86 94.5246 19.526 91.1699 19.526H86.9149V25.668C86.9149 26.1367 86.8039 26.482 86.5819 26.704C86.3846 26.9013 86.0516 27 85.5829 27ZM86.8409 7.279V12.866H90.1709C90.8862 12.866 91.3549 12.681 91.5769 12.311C91.7989 11.941 91.9099 11.5217 91.9099 11.053V9.092C91.9099 8.62333 91.7989 8.204 91.5769 7.834C91.3549 7.464 90.8862 7.279 90.1709 7.279H86.8409ZM122.237 27H105.069C104.6 27 104.255 26.9013 104.033 26.704C103.835 26.482 103.737 26.1367 103.737 25.668V1.692C103.737 1.22333 103.835 0.890333 104.033 0.692999C104.255 0.470999 104.6 0.359999 105.069 0.359999H122.237C122.705 0.359999 123.038 0.470999 123.236 0.692999C123.458 0.890333 123.569 1.22333 123.569 1.692V6.021C123.569 6.48967 123.458 6.835 123.236 7.057C123.038 7.25433 122.705 7.353 122.237 7.353H112.025V10.202H119.24C119.708 10.202 120.041 10.313 120.239 10.535C120.461 10.7323 120.572 11.0653 120.572 11.534V15.493C120.572 15.9617 120.461 16.307 120.239 16.529C120.041 16.7263 119.708 16.825 119.24 16.825H112.025V20.007H122.237C122.705 20.007 123.038 20.118 123.236 20.34C123.458 20.5373 123.569 20.8703 123.569 21.339V25.668C123.569 26.1367 123.458 26.482 123.236 26.704C123.038 26.9013 122.705 27 122.237 27ZM136.308 7.02V11.756H139.083C139.724 11.756 140.156 11.5957 140.378 11.275C140.6 10.9297 140.711 10.5103 140.711 10.017V8.759C140.711 8.26567 140.6 7.85867 140.378 7.538C140.156 7.19267 139.724 7.02 139.083 7.02H136.308ZM134.976 27H129.278C128.809 27 128.464 26.9013 128.242 26.704C128.044 26.482 127.946 26.1367 127.946 25.668V1.692C127.946 1.22333 128.044 0.890333 128.242 0.692999C128.464 0.470999 128.809 0.359999 129.278 0.359999H141.599C144.361 0.359999 146.261 0.939665 147.297 2.099C148.357 3.23367 148.888 4.71367 148.888 6.539V8.241C148.888 9.277 148.727 10.165 148.407 10.905C148.111 11.6203 147.58 12.1383 146.816 12.459C148.148 12.607 149.221 13.1497 150.035 14.087C150.873 15.0243 151.293 16.27 151.293 17.824V25.668C151.293 26.1367 151.182 26.482 150.96 26.704C150.762 26.9013 150.429 27 149.961 27H144.226C143.757 27 143.412 26.9013 143.19 26.704C142.992 26.482 142.894 26.1367 142.894 25.668V20.007C142.894 19.4643 142.783 19.0697 142.561 18.823C142.363 18.5517 142.006 18.416 141.488 18.416H136.308V25.668C136.308 26.1367 136.197 26.482 135.975 26.704C135.777 26.9013 135.444 27 134.976 27ZM186.434 20.007C186.434 21.1417 186.262 22.1777 185.916 23.115C185.596 24.0277 185.004 24.817 184.14 25.483C183.302 26.1243 182.142 26.63 180.662 27C179.182 27.37 177.295 27.555 175.001 27.555C172.707 27.555 170.82 27.37 169.34 27C167.86 26.63 166.689 26.1243 165.825 25.483C164.987 24.817 164.395 24.0277 164.049 23.115C163.729 22.1777 163.568 21.1417 163.568 20.007V1.692C163.568 1.22333 163.667 0.890333 163.864 0.692999C164.086 0.470999 164.432 0.359999 164.9 0.359999H170.709C171.178 0.359999 171.511 0.470999 171.708 0.692999C171.93 0.890333 172.041 1.22333 172.041 1.692V18.564C172.041 19.0573 172.226 19.4767 172.596 19.822C172.966 20.1427 173.793 20.303 175.075 20.303C176.383 20.303 177.221 20.1427 177.591 19.822C177.961 19.4767 178.146 19.0573 178.146 18.564V1.692C178.146 1.22333 178.245 0.890333 178.442 0.692999C178.664 0.470999 179.01 0.359999 179.478 0.359999H185.102C185.571 0.359999 185.904 0.470999 186.101 0.692999C186.323 0.890333 186.434 1.22333 186.434 1.692V20.007ZM203.717 27H192.025C191.556 27 191.211 26.9013 190.989 26.704C190.791 26.482 190.693 26.1367 190.693 25.668V21.339C190.693 20.8703 190.791 20.5373 190.989 20.34C191.211 20.118 191.556 20.007 192.025 20.007H201.978C202.298 20.007 202.533 19.9083 202.681 19.711C202.853 19.489 202.94 19.23 202.94 18.934C202.94 18.5147 202.853 18.2063 202.681 18.009C202.533 17.8117 202.298 17.7007 201.978 17.676L196.428 16.899C194.701 16.6523 193.307 16.085 192.247 15.197C191.211 14.309 190.693 12.829 190.693 10.757V6.872C190.693 4.77533 191.371 3.172 192.728 2.062C194.084 0.927332 195.959 0.359999 198.352 0.359999H208.712C209.18 0.359999 209.513 0.470999 209.711 0.692999C209.933 0.890333 210.044 1.22333 210.044 1.692V6.095C210.044 6.56367 209.933 6.909 209.711 7.131C209.513 7.32833 209.18 7.427 208.712 7.427H200.091C199.77 7.427 199.523 7.538 199.351 7.76C199.178 7.95733 199.092 8.21633 199.092 8.537C199.092 8.85767 199.178 9.129 199.351 9.351C199.523 9.573 199.77 9.69633 200.091 9.721L205.604 10.461C207.33 10.7077 208.724 11.275 209.785 12.163C210.845 13.051 211.376 14.531 211.376 16.603V20.488C211.376 22.5847 210.685 24.2003 209.304 25.335C207.947 26.445 206.085 27 203.717 27ZM233.923 27H216.755C216.286 27 215.941 26.9013 215.719 26.704C215.522 26.482 215.423 26.1367 215.423 25.668V1.692C215.423 1.22333 215.522 0.890333 215.719 0.692999C215.941 0.470999 216.286 0.359999 216.755 0.359999H233.923C234.392 0.359999 234.725 0.470999 234.922 0.692999C235.144 0.890333 235.255 1.22333 235.255 1.692V6.021C235.255 6.48967 235.144 6.835 234.922 7.057C234.725 7.25433 234.392 7.353 233.923 7.353H223.711V10.202H230.926C231.395 10.202 231.728 10.313 231.925 10.535C232.147 10.7323 232.258 11.0653 232.258 11.534V15.493C232.258 15.9617 232.147 16.307 231.925 16.529C231.728 16.7263 231.395 16.825 230.926 16.825H223.711V20.007H233.923C234.392 20.007 234.725 20.118 234.922 20.34C235.144 20.5373 235.255 20.8703 235.255 21.339V25.668C235.255 26.1367 235.144 26.482 234.922 26.704C234.725 26.9013 234.392 27 233.923 27ZM247.994 7.02V11.756H250.769C251.41 11.756 251.842 11.5957 252.064 11.275C252.286 10.9297 252.397 10.5103 252.397 10.017V8.759C252.397 8.26567 252.286 7.85867 252.064 7.538C251.842 7.19267 251.41 7.02 250.769 7.02H247.994ZM246.662 27H240.964C240.495 27 240.15 26.9013 239.928 26.704C239.731 26.482 239.632 26.1367 239.632 25.668V1.692C239.632 1.22333 239.731 0.890333 239.928 0.692999C240.15 0.470999 240.495 0.359999 240.964 0.359999H253.285C256.048 0.359999 257.947 0.939665 258.983 2.099C260.044 3.23367 260.574 4.71367 260.574 6.539V8.241C260.574 9.277 260.414 10.165 260.093 10.905C259.797 11.6203 259.267 12.1383 258.502 12.459C259.834 12.607 260.907 13.1497 261.721 14.087C262.56 15.0243 262.979 16.27 262.979 17.824V25.668C262.979 26.1367 262.868 26.482 262.646 26.704C262.449 26.9013 262.116 27 261.647 27H255.912C255.443 27 255.098 26.9013 254.876 26.704C254.679 26.482 254.58 26.1367 254.58 25.668V20.007C254.58 19.4643 254.469 19.0697 254.247 18.823C254.05 18.5517 253.692 18.416 253.174 18.416H247.994V25.668C247.994 26.1367 247.883 26.482 247.661 26.704C247.464 26.9013 247.131 27 246.662 27ZM275.417 27H267.943C267.475 27 267.129 26.9013 266.907 26.704C266.71 26.482 266.611 26.1367 266.611 25.668V18.157C266.611 17.6883 266.71 17.3553 266.907 17.158C267.129 16.936 267.475 16.825 267.943 16.825H275.417C275.886 16.825 276.219 16.936 276.416 17.158C276.638 17.3553 276.749 17.6883 276.749 18.157V25.668C276.749 26.1367 276.638 26.482 276.416 26.704C276.219 26.9013 275.886 27 275.417 27ZM289.617 27H282.143C281.675 27 281.329 26.9013 281.107 26.704C280.91 26.482 280.811 26.1367 280.811 25.668V18.157C280.811 17.6883 280.91 17.3553 281.107 17.158C281.329 16.936 281.675 16.825 282.143 16.825H289.617C290.086 16.825 290.419 16.936 290.616 17.158C290.838 17.3553 290.949 17.6883 290.949 18.157V25.668C290.949 26.1367 290.838 26.482 290.616 26.704C290.419 26.9013 290.086 27 289.617 27ZM303.818 27H296.344C295.875 27 295.53 26.9013 295.308 26.704C295.11 26.482 295.012 26.1367 295.012 25.668V18.157C295.012 17.6883 295.11 17.3553 295.308 17.158C295.53 16.936 295.875 16.825 296.344 16.825H303.818C304.286 16.825 304.619 16.936 304.817 17.158C305.039 17.3553 305.15 17.6883 305.15 18.157V25.668C305.15 26.1367 305.039 26.482 304.817 26.704C304.619 26.9013 304.286 27 303.818 27ZM322.742 14.235H319.893C319.425 14.235 319.079 14.1363 318.857 13.939C318.66 13.717 318.561 13.3717 318.561 12.903V11.423C318.561 10.9543 318.66 10.6213 318.857 10.424C319.079 10.202 319.425 10.091 319.893 10.091H322.446C322.767 10.091 323.014 10.0047 323.186 9.832C323.359 9.63467 323.445 9.37567 323.445 9.055V8.5H319.412C318.944 8.5 318.598 8.40133 318.376 8.204C318.179 7.982 318.08 7.63667 318.08 7.168V1.692C318.08 1.22333 318.179 0.890333 318.376 0.692999C318.598 0.470999 318.944 0.359999 319.412 0.359999H326.886C327.355 0.359999 327.688 0.470999 327.885 0.692999C328.107 0.890333 328.218 1.22333 328.218 1.692V8.648C328.218 10.5227 327.713 11.9287 326.701 12.866C325.715 13.7787 324.395 14.235 322.742 14.235ZM310.902 14.235H308.053C307.585 14.235 307.239 14.1363 307.017 13.939C306.82 13.717 306.721 13.3717 306.721 12.903V11.423C306.721 10.9543 306.82 10.6213 307.017 10.424C307.239 10.202 307.585 10.091 308.053 10.091H310.606C310.927 10.091 311.174 10.0047 311.346 9.832C311.519 9.63467 311.605 9.37567 311.605 9.055V8.5H307.572C307.104 8.5 306.758 8.40133 306.536 8.204C306.339 7.982 306.24 7.63667 306.24 7.168V1.692C306.24 1.22333 306.339 0.890333 306.536 0.692999C306.758 0.470999 307.104 0.359999 307.572 0.359999H315.046C315.515 0.359999 315.848 0.470999 316.045 0.692999C316.267 0.890333 316.378 1.22333 316.378 1.692V8.648C316.378 10.5227 315.873 11.9287 314.861 12.866C313.875 13.7787 312.555 14.235 310.902 14.235Z" fill="white"/>
</svg>
